<svg xmlns="http://www.w3.org/2000/svg" width="1000" height="700">
  <path fill-rule="evenodd" clip-rule="evenodd" d="M262.47 322.415c10.135.661 15.114 9.939 15.818 19.131.423 5.502-.956 10.875-1.04 16.367-.042 2.855.57 5.88.119 8.711-.441 2.771-2.688 3.912-5.106 4.814-2.95 1.102-6.09 1.696-9.243 1.622-1.514-.036-3.56-.006-4.936-.718-1.272-.656-2.054-1.957-3.071-2.912-4.64-4.348-4.091-11.581-4.068-17.404.025-6.271-.759-14.161 1.825-20.029 1.324-3.003 3.919-5.168 6.468-7.114 1.059-.809 2.024-1.974 3.36-2.332 1.005-.267 4.035-.138 4.819.637.52.513-2.519.674-2.652.672-.608 0-2.463.125-2.772-.619-.566-1.36 5.307-.746 5.36.055.069 1.025-7.371 1.103-4.881-.881 13.469.877-3.735 2.978 0 0zM129.226 316.171c7.035-.195 14.431 3.979 16.668 10.886 1.372 4.231-.121 8.586-1.134 12.709-1.126 4.583-1.588 9.274-1.684 13.984-.092 4.545.228 9.048.363 13.584.072 2.406-.362 5.6 1.252 7.624 1.928 2.415 6.601.924 8.922-.004 3.782-1.51 7.084-3.933 10.64-5.873 3.865-2.109 7.846-3.969 11.594-6.292 3.784-2.347 6.963-5.498 10.716-7.881 2.433-1.542 6.096-3.677 9.057-2.439 3.763 1.573 7.299 4.206 10.097 7.156 1.868 1.972 3.917 5.089 3.61 7.936-.361 3.367-4.848 6.021-7.348 7.726-7.216 4.92-15.864 6.655-23.419 11.009-3.637 2.097-7.267 4.314-10.547 6.945-1.833 1.47-2.942 2.094-1.098 4.106 1.289 1.408 3.101 2.215 4.876 2.814 8.51 2.872 17.563 2.427 26.348 3.717 4.169.612 8.595.011 12.673.917 3.958.877 7.642 3.742 10.204 6.788 2.465 2.929 4.871 7.039 5.235 10.93.374 3.981-3.146 7.446-6.133 9.552-7.646 5.388-15.707-1.569-22.623-4.744-7.999-3.672-17.083-4.074-25.484-6.436-4.162-1.17-8.326-2.199-12.569-3.026-3.137-.612-6.789-1.659-9.935-.576-3.529 1.211-3.73 5.21-3.329 8.336.604 4.695.997 9.407 1.427 14.121.421 4.635.633 9.325 1.297 13.934.695 4.833 2.569 9.401 3.052 14.279.367 3.715.227 6.877-3.273 8.842-3.51 1.972-7.64 3.617-11.729 3.361-13.819-.864-12.694-18.563-12.807-28.367-.111-9.645.391-19.205-.876-28.801-1.215-9.202-2.879-18.8-1.581-27.992.665-4.703.2-9.331.037-14.045-.169-4.878.521-9.764.211-14.626-.281-4.434-.895-8.785-.858-13.241.042-5.049.411-10.082.14-15.128-.168-3.115-.443-6.224-.439-9.346.002-2.061-.319-4.839.943-6.62 1.314-1.855 3.841-2.724 5.539-4.2.308-.267 4.42-2.791 4.568-1.338.047.464-2.565.693-2.843.284-.607-.889 3.003-.694 2.983-.294-.032.672-4.024.985-2.743-.271 7.044-.194-2.001 1.961 0 0zM406.126 357.288c7.343-.015 14.383 6.754 15.789 13.751 1.372 6.83-6.029 12.343-8.59 18.009-7.614 16.826-10.657 35.317-16.164 52.857-2.661 8.474-6.615 17.31-7.715 26.149-.728 5.85-.396 13.048-5.138 17.373-5.892 5.377-14.615 3.592-19.634-1.957-5.644-6.239-5.948-15.048-8.892-22.558-3.264-8.327-8.634-15.668-11.597-24.136-1.033-2.956-1.407-6.218-2.969-8.969-.946-1.667-3.988-4.768-5.472-1.944-.939 1.788-.935 4.146-.853 6.114.198 4.715-.876 9.217-1.428 13.87-1.123 9.465-.771 19.027-1.665 28.509-.419 4.438-1.366 8.808-1.865 13.236-.4 3.548.197 7.136.307 10.683.223 7.265-2.861 13.957-11.01 14.2-5.938.178-14.13-4.904-15.313-11.14-.716-3.77 1.201-8.071 2.34-11.594 1.507-4.659 2.896-9.259 3.46-14.141.514-4.447.587-8.933.77-13.404.197-4.81 1.09-9.511 1.393-14.295.604-9.497 1.739-18.953 2.907-28.427.543-4.413.066-8.746.346-13.158.295-4.625 1.161-9.204 1.241-13.847.076-4.445-1.165-8.168-2.351-12.377-1.253-4.44.066-8.346 3.231-11.616 2.534-2.622 6.254-5.178 9.926-5.748 2.988-.464 7.521 2.22 9.816 3.981 3.074 2.359 4.662 6.132 6.056 9.633 1.768 4.44 3.315 8.954 5.167 13.363 3.736 8.901 7.375 17.828 10.758 26.874 2.837 7.586 4.784 16.123 8.724 23.227 1.213 2.186 4.052 5.483 6.147 2.383 1.609-2.381 2.202-5.335 3.086-8.025 3.587-10.911 7.107-21.805 10.424-32.808 1.604-5.32 3.707-10.645 4.412-16.181.696-5.47.535-10.527 2.279-15.862 1.318-4.039 2.88-8.526 7.257-10.086 1.628-.578 6.239-3.556 7.752-1.684.129.159-2.68.515-3.033.433-1.012-.244 1.959-1.22 2.597-.447.29.354-4.402 1.061-2.496-.241 7.162-.015-2.611 1.783 0 0zM522.715 361.973c7.377.036 14.156 5.85 16.134 12.815.97 3.405-1.301 6.885-4.058 8.706-3.49 2.309-8.084 1.386-11.998 1.245-4.157-.147-8.213.146-11.947 2.129-4.051 2.149-7.709 5.163-10.944 8.396-5.958 5.955-9.651 13.745-12.614 21.523-1.506 3.956-2.836 8.107-3.166 12.352-.367 4.685.894 9.137 1.883 13.66.997 4.552 1.47 9.193 2.869 13.654 1.362 4.337 3.304 8.448 4.956 12.675 3.679 9.416 6.288 21.679 15.012 27.905 11.602 8.281 24.243-3.233 30.421-12.635 3.846-5.852 21.356-34.833 6.656-35.422-5.794-.232-10.966 3.191-16.65 3.367-7.209.221-12.89-5.93-14.169-12.667-1.283-6.764 2.376-13.232 8.531-16.121 3.38-1.586 7.008-1.982 10.563-.745 4.081 1.419 7.513 3.853 11.882 4.5 4.157.616 8.314-.095 12.379-.972 4.282-.924 7.804-2.202 11.94-.174 3.032 1.489 6.178 3.436 8.2 6.192 1.904 2.602 3.715 7.239 2.823 10.514-.5 1.834-2.198 3.282-3.196 4.85-1.156 1.821-1.959 3.938-2.757 5.935-1.788 4.464-3.196 9.066-4.836 13.586-3.174 8.755-7.643 17.163-12.493 25.101-4.479 7.33-9.496 14.764-15.848 20.613-6.281 5.788-13.944 8.749-22.407 9.488-8.323.729-16.255-.686-23.08-5.725-6.712-4.956-11.094-12.184-14.406-19.707-7.278-16.527-13.611-33.608-19.467-50.683-1.301-3.795-2.738-7.603-3.264-11.602-.558-4.266.578-8.312 1.811-12.364 2.526-8.306 5.15-16.962 9.186-24.673 7.124-13.613 19.871-26.78 34.347-32.503 3.729-1.474 7.4-1.807 11.371-1.863 2.872-.043 5.39-1.199 8.216-1.312 2.662-.104-.344.93-1.614.712-2.142-.366 2.236-1.383 2.427-.462.109.533-4.603.881-2.693-.288 7.338.036-2.825 1.728 0 0zM259.869 382.793c3.764-.076 7.484-.194 10.562 2.334 3.375 2.772 6.224 6.339 8.059 10.31 1.944 4.207.592 8.1-.891 12.185-1.634 4.498-2.713 9.186-3.357 13.925-.599 4.403-.611 8.783-.87 13.205-.27 4.577-1.826 8.946-2.464 13.466-.633 4.487-1.094 9.001-1.827 13.474-.785 4.771-1.897 9.521-1.969 14.378-.093 6.411 2.038 13.502-.759 19.605-3.19 6.959-11.642 8.217-17.737 4.405-3.027-1.892-5.634-4.851-6.683-8.305-1.33-4.377.545-8.351 1.929-12.438.656-1.939.361-4.005.395-6.008.037-2.205.486-4.425.937-6.576 1.012-4.842 2.15-9.61 2.777-14.526.929-7.292 1.174-14.646 1.983-21.947.763-6.875 2.586-13.792.879-20.675-1.672-6.741-2.478-12.352.581-18.87 1.081-2.303 2.36-4.683 4.708-5.898.466-.241 4.016-2.406 4.634-2.055.443.255-1.14.935-1.138.384.003-.682 1.317-.371 1.301-.197-.039.367-1.952.659-1.05-.176 3.997-.08-1.32 1.223 0 0zM647.631 449.415c6.542-.235 11.83 4.369 13.637 10.475 1.199 4.05 1.192 8.419.587 12.565-.64 4.378.127 8.811-.591 13.154-.678 4.103-1.385 7.942-1.285 12.134.086 3.623.73 7.236.609 10.862-.116 3.534-1.203 6.091-4.371 7.836-2.872 1.584-6.322 2.705-9.603 2.883-7.575.413-10.614-5.829-11.011-12.46-.529-8.882 1.852-17.951 2.379-26.822.283-4.78-.527-9.204-1.168-13.91-.504-3.691-.798-8.044 1.56-11.215.854-1.147 9.596-5.438 9.604-5.406.156.633-1.648.772-1.625.955-.095-1.684 4.717-1.087 3.08-.426-.874.352-3.837.771-1.802-.625 7.024-.252-3.589 2.463 0 0zM942.749 483.767c7.035.288 12.033 4.895 14.82 11.085 3.568 7.928 4.933 17.06 7.408 25.381 2.774 9.318 4.931 18.772 7.324 28.193 1.113 4.377 1.603 8.653 1.931 13.149.354 4.848 1.453 9.433 2.522 14.158 2.076 9.168 2.642 18.548 4.103 27.822 1.35 8.559 1.323 18.002 4.744 26.064 1.586 3.736 4.388 7.4 4.398 11.632.011 3.891-2.664 6.997-5.828 8.854-4.913 2.885-13.442.587-17.265-3.431-5.818-6.119-2.055-15.245-2.2-22.583-.089-4.439-1.148-8.76-2.008-13.093-1.009-5.081-1.85-10.191-2.665-15.306-1.552-9.744-3.666-19.394-5.227-29.127-.714-4.45-1.343-8.819-2.684-13.138-1.188-3.824-2.499-7.631-3.191-11.585-.375-2.132-.747-4.606-2.08-6.385-2.213-2.957-4.002.381-4.911 2.336-3.992 8.579-5.892 17.944-7.347 27.24-.716 4.581-1.326 9.179-2.029 13.764-.749 4.895-1.982 9.791-2.257 14.745-.227 4.065.758 8.367-.82 12.267-1.448 3.574-4.904 6.294-8.522 7.432-7.963 2.501-14.814-2.807-19.057-9.093-2.242-3.327-3.956-6.97-6.04-10.395-2.329-3.826-5.739-6.62-8.24-10.271-1.178-1.718-8.071-15.418-10.728-8.57-1.929 4.968-.389 11.495-.772 16.652-.343 4.615-.129 9.251-.513 13.857-.421 5.04-.805 10.087-.904 15.146-.182 9.361 1.354 18.87-.44 28.148-.534 2.756-5.812 5.469-8.425 5.979-3.854.752-7.997-.161-11.395-2.063-2.439-1.365-4.693-3.418-5.415-6.216-.868-3.354.627-6.968 1.343-10.21.997-4.503 1.944-9.052 1.906-13.686-.045-4.958.709-9.719 1.076-14.647.343-4.568.129-9.151.218-13.726.093-4.726 1.279-9.376 1.175-14.104-.095-4.286-1.044-8.53-.73-12.827.339-4.651 1.888-9.151 1.747-13.849-.237-7.926-2.846-15.404-.198-23.221.965-2.847 2.524-5.602 4.917-7.482 1.239-.975 2.644-1.611 4.153-2.044 2.673-.767 4.005.049 6.4 1.102 3.268 1.438 6.411 2.442 8.619 5.437 2.413 3.27 3.243 7.524 4.774 11.23 3.55 8.593 10.036 15.751 14.494 23.886 1.161 2.12 6.822 14.528 10.448 11.13 1.774-1.667 2.524-4.59 3.195-6.835.975-3.262 1.692-6.599 2.349-9.937 1.638-8.343 3.742-16.401 6.328-24.527 1.964-6.172 3.91-12.39 6.241-18.434 2.271-5.888 3.766-11.447 4.996-17.616 1.119-5.613 4.071-9.097 9.137-11.661.83-.422 8.152-.701 7.997.08-.277 1.41-7.126.094-6.966-.589.193-.807 5.581.661 5.648.542-.648 1.134-6.578.142-5.554-.66 9.385.385-2.574 2.018 0 0zM149.004 499.903c7.561-.119 14.276 4.968 16.611 12.091 1.347 4.104.97 8.016-.286 12.076-1.273 4.114-1.709 7.774-1.173 12.055.767 6.133 2.783 16.855-5.254 19.367-6.859 2.146-16.889.518-19.27-7.186-1.197-3.871.169-8.59-.081-12.633-.31-5.023-.83-9.811-.618-14.863.156-3.726-.351-7.724.487-11.381.998-4.363 4.71-6.255 8.162-8.522 1.065-.701 1.736-.824 3.019-.79.126.004 2.229.203 1.983.446-.683.683-5.129 1.134-4.249-.042 1.146-1.533 8.321-.243 3.357.707-1.071.209-5.089.509-2.688-1.325 6.517-.101-4.675 3.571 0 0zM725.184 523.846c7.184.116 13.293 5.504 15.672 12.065 1.392 3.844.587 8.048-.333 11.9-.535 2.24-1.332 4.415-1.429 6.738-.108 2.58.194 5.155.099 7.739-.167 4.445-.44 8.77.032 13.209.511 4.82.906 9.577 1.097 14.419.369 9.388 2.317 18.517 5.735 27.259 3.164 8.101 6.701 16.623 11.395 23.975 3.266 5.116 8.829 10.531 14.181 4.65 5.083-5.585 5.38-13.689 6.576-20.751 1.631-9.63 2.569-19.417 2.254-29.19-.148-4.61-.759-9.188-.989-13.792-.246-4.886.021-9.782-.65-14.643-.572-4.139-.694-8.408-1.43-12.506-.736-4.108-3.106-7.716-3.512-11.882-.707-7.264 4.268-14.311 11.157-16.587 3.399-1.122 6.73.864 9.391 2.885a18.832 18.832 0 0 1 3.793 3.84c.56.763 1.104 1.535 1.694 2.274 1.082 1.349 1.277 1.738 1.426 3.501.769 9.064-.557 18.013-.468 27.092.091 9.378 1.925 18.499 1.361 27.926-.271 4.521-1.263 9.137-1.071 13.663.205 4.871.792 9.371.006 14.246-.694 4.311-1.845 8.527-2.556 12.835-.695 4.201-1.15 8.441-1.972 12.622-1.477 7.515-4.706 13.87-11.032 18.404-5.721 4.101-14.557 8.425-21.637 6.31-6.557-1.957-11.955-4.729-16.134-10.323-4.079-5.457-5.697-12.561-10.132-17.658-5.718-6.572-9.395-15.581-12.474-23.652-3.34-8.749-6.054-18.129-7.208-27.438-1.177-9.511-1.211-19.059-1.62-28.607-.357-8.421-2.539-16.804-2.186-25.252.168-4.003 1.154-8.321 4.431-10.947 1.502-1.203 7.455-6.349 9.649-3.835.053.06-2.787.925-3.461.348-.885-.761 2.756-1.271 2.982-.418.173.648-4.889 1.375-2.637-.419 7.217.116-3.105 2.473 0 0zM391.551 526.446c4.161.241 7.828 2.484 11.839 3.369 4.748 1.049 9.581 1.607 14.389 2.3 4.452.64 8.972.661 13.408 1.426 4.573.788 8.825 2.218 13.511 2.271 3.893.042 8.075-.667 11.73 1.044 3.581 1.678 6.597 4.88 8.45 8.327 1.486 2.762 3.463 7.165.607 9.722-3.206 2.871-7.755 5.451-11.98 6.321-8.912 1.834-17.118-3.753-25.347-6.136-3.945-1.141-8.061-1.901-12.133-2.438-3.276-.432-8.504-1.04-10.585 2.254-1.849 2.925-.965 7.144-.996 10.382-.048 4.907-.193 9.795.069 14.7.202 3.773.157 6.73 3.038 9.329 1.182 1.065 3.289.69 4.771.805 2.472.188 4.938.396 7.421.315 4.409-.144 8.497-1.87 12.861-2.16 3.903-.261 7.447 1.394 10.186 4.11 2.38 2.362 4.159 5.378 5.144 8.578.562 1.823.856 3.731.871 5.638a57.36 57.36 0 0 1-6.538 3.532c-4.007 1.828-8.158 2.908-12.584 2.709-4.746-.216-9.439-1.444-14.209-1.074-7.667.598-8.385 7.375-7.368 13.629 1.029 6.332 2.592 12.852 9.956 13.751 3.833.469 7.988-.036 11.737-.912 3.774-.884 7.658-2.486 11.604-2.01 7.062.851 12.172 8.139 13.385 14.664.405 2.168.013 2.8-1.215 4.527-.911 1.279-1.832 2.58-3.08 3.559-3.284 2.568-8.104 2.385-12.025 2.014-7.751-.732-15.268-1.118-23.062-1.065-6.522.045-13.782.295-19.861-2.463-2.379-1.078-4.77-2.84-5.959-5.233-1.684-3.384-.389-7.658-1.158-11.275-.962-4.534-1.34-9.16-1.843-13.76-.456-4.166-.223-8.319-4.24-10.566-6.204-3.471-12.086-8.677-9.281-16.447 1.09-3.02 2.931-6.008 5.391-8.099 3.249-2.762 4.542-4.286 4.319-8.747-.216-4.331-.715-8.601-.776-12.948-.067-4.85-.069-9.726-.769-14.537-1.255-8.63-4.916-16.884 2.741-23.723 1.521-1.357 3.206-2.512 4.87-3.683.152-.108 3.951-2.921 3.599-1.517-.385 1.529-4.245 2.19-.888-.483 3.049.178-4.973 3.958 0 0 4.123.24-5.255 4.183 0 0zM202.616 529.57c7.751-.094 14.407 4.565 16.072 12.334.857 4.005-1.909 7.129-1.592 11.049.406 4.992 1.009 9.677.712 14.728-.578 9.8-.161 19.517-.503 29.308-.155 4.398-.999 8.729-1.026 13.133-.029 4.752-.203 9.433-.366 14.184-.246 7.167.143 15.403 7.091 19.359 7.057 4.02 16.164 3.579 23.975 4.703 2.061.297 4.094.828 6.163 1.049 1.966.21 3.91-.265 5.871-.083 3.916.36 5.535 4.412 7.716 7.123 1.635 2.028 4.326 4.973 3.743 7.829-.614 3.006-2.86 5.123-5.455 6.57-7.396 4.125-14.481 1.533-22.041-.491-3.834-1.025-8.278-2.866-12.254-2.866-4.559 0-8.81-.595-13.333-1.014-6.062-.566-14.216-.335-18.233-5.738-3.09-4.154-6.318-9.67-6.966-14.891-.413-3.329 1.855-6.517 2.641-9.653 1.183-4.723 1.178-9.841 1.158-14.681-.041-9.503-.326-19.101-.925-28.578-.291-4.615-.105-9.238.129-13.85.259-5.078-.412-10.002-.939-15.041-.495-4.744-.686-9.528-.847-14.293-.135-4.012-1.131-9.446.696-13.199 1.21-2.481 3.962-4.716 6.316-6.08 1.091-.631 2.348-1.01 3.616-.897.728.065 2.215.474 2.871.027-1.254.857-3.139-.829-4.29-.041.635-.009 1.894-.233 2.518.044-.093-.04-2.667.058-2.518-.044 5.488-.066-.613.419 0 0zM37.621 609.725c-1.312 0-2.588-.479-3.033 1.167-.352 1.303-.179 2.675-.195 4.003-.062 4.971.105 9.945.105 14.918v13.91c0 2.513.441 4.584.715 7.04.504 4.534 1.184 9.99.071 14.478-.563 2.267-1.954 4.349-3.927 5.615-1.283.823-2.752 1.323-4.248 1.593-2.378.425-3.77-.191-6.016-.602-8.128-1.48-11.496-10.141-11.055-17.579.227-3.835.976-7.613 1.526-11.408.643-4.41.551-8.794.551-13.239v-59.758c0-4.563.12-9.143.019-13.707-.094-4.217-1.843-8.501-1.264-12.68.453-3.274 2.234-6.224 4.741-8.347 2.61-2.209 7.854-4.894 11.376-3.884 1.528.438 2.613 1.982 3.765 2.986 1.356 1.182 2.802 2.264 4.094 3.522 3.345 3.25 3.908 7.45 4.629 11.861 1.514 9.287 6.864 17.502 9.649 26.421.8 2.561 2.877 16.225 7.816 14.798 1.849-.534 2.709-4.376 3.216-5.911 1.089-3.298 2.401-6.504 3.548-9.782 1.485-4.251 2.549-8.453 2.624-12.977.078-4.674-.439-9.516.904-14.067 2.003-6.783 8.549-11.989 15.772-11.548 7.944.482 13.957 8.325 14.812 15.797.508 4.441.438 8.393 2.35 12.553 1.955 4.252 3.535 8.45 4.697 12.993 2.427 9.487 4.447 19.124 5.843 28.819.65 4.524 1.12 9.075 1.282 13.642.177 4.998 1.471 9.816 2.028 14.8.966 8.624.085 17.987 2.712 26.342 1.579 5.023 6.86 14.577 1.524 18.66-2.275 1.739-4.646 3.45-7.353 4.452-3.819 1.415-6.141.223-9.579-1.298-5.711-2.524-7.359-11.456-6.718-16.96.314-2.703.847-5.373.953-8.099.143-3.717-.708-7.194-1.376-10.82-1.607-8.73-2.342-17.606-3.733-26.372-.662-4.17-1.374-8.334-2.072-12.497-.606-3.609-.925-7.525-2.687-10.802-1.684-3.13-3.681-3.524-5.259-.239-1.923 4.005-3.182 8.359-4.266 12.652-1.943 7.686-3.777 15.409-4.325 23.315-.507 7.298-6.967 9.584-13.447 8.988-6.09-.559-10.01-3.653-12.597-9.092-3.521-7.408-7.036-15.48-8.172-23.657-1.007 0 .42 2.521.208 2.747.512-.544-.121-2.114-.208-2.747-.661 0-.296 2.499.119 2.749.089.053-.107-2.661-.119-2.749-.735 0 .864 6.199 0 0zM657.522 535.815c7.107.591 12.977 7.161 15.104 13.597 1.33 4.028.449 7.963-.205 12.021-.784 4.856-.587 9.933-.212 14.818.348 4.549 1.205 9.021 1.698 13.55.521 4.789.475 9.575 1.138 14.364.599 4.315.692 8.351.692 12.689 0 4.954.834 9.967 1.109 14.921.259 4.665.973 9.132.973 13.814 0 4.217.341 8.412.201 12.618-.273 8.214 2.865 16.17.841 24.384-7.055 4.652-15.332 4.242-21.668-1.417-1.292-1.154-.634-3.793-.576-5.467.067-2.008.144-4.015.218-6.022.165-4.494.312-8.993.315-13.489.002-5.322-.176-10.668-.914-15.941-.382-2.721-.828-5.144-.721-7.912.119-3.022.308-6.053.098-9.077-.857-12.299-2.357-24.649-3.622-36.917-.624-6.067-.923-12.285-2.272-18.247-1.184-5.233-4.509-9.927-5.163-15.253-.642-5.233 2.26-9.385 6.104-12.589 1.642-1.368 3.419-3.159 5.464-3.884.61-.216 4.044-1.098 4.251-.229.05.217-2.811-.361-2.853-.332.788.065 2.385-.078 3.113.348-.101-.059-3.261-.246-3.113-.348 7.399.615-.612.422 0 0zM306.192 537.897c7.047.33 11.113 6.049 12.982 12.292 1.2 4.007 1.238 7.997 1.246 12.14.01 4.848.722 9.673.88 14.521.314 9.604.392 19.314.424 28.928.015 4.547-.189 9.079-.956 13.564-.804 4.704-.122 9.512-.103 14.265.019 4.79.398 9.572.889 14.336.282 2.744 1.465 3.592 3.375 5.504 1.977 1.013 4.242 1.15 6.423 1.135 4.229-.031 7.931.108 12.052 1.142 4.305 1.076 8.606 2.16 12.913 3.23 4.081 1.012 8.429.229 12.434 1.441 3.543 1.074 6.396 4.097 8.208 7.216 1.878 3.234 2.848 7.104 2.102 10.818-2.874 1.847-5.642 3.973-8.977 4.933-3.71 1.065-7.655-.523-11.161-1.709-4.25-1.44-8.396-3.184-12.696-4.474-6.894-2.066-13.687-1.821-20.761-.999-5.656.656-11.966 1.929-17.53.112-5.558-1.817-8.472-7.207-8.688-12.801-.294-7.562.793-15.043.394-22.629-.241-4.579-.744-9.232-.564-13.819.189-4.824.993-9.597 1.181-14.425.37-9.546.025-19.12-.871-28.63-.42-4.443-.929-8.871-1.199-13.329-.275-4.537-.496-8.379-2.111-12.665-2.072-5.505-1.975-10.211 1.545-15.09 1.711-2.372 3.666-3.651 6.474-4.396 1.356-.36 2.879-.69 4.286-.473.523.08 1.937.567 2.411.248-1.329.881-3.54-1.093-4.602-.386.464.021 3.234.562 3.568.339-.746.495-3.525-.368-3.568-.339 8.238.386-1.087.722 0 0zM539.37 546.225c13.813.44 17.132 16.971 22.162 26.905 4.257 8.41 8.8 16.651 13.001 25.095 3.899 7.834 7.22 15.834 10.863 23.765.872 1.9 3.181 6.835 5.872 6.596 1.828-.163 1.317-4.149 1.386-5.329.267-4.693.754-9.373 1.436-14.024.69-4.697 1.957-9.327 2.296-14.071.312-4.356.955-8.753.475-13.122-.487-4.42-2.633-8.829-1.836-13.341 1.215-6.887 10.473-14.771 17.542-11.727 7.658 3.3 12.178 12.591 8.696 20.296-1.898 4.202-2.881 7.734-3.251 12.35-.413 5.148-1.096 10.267-1.687 15.396-1.118 9.685-1.053 19.381-1.73 29.093-.647 9.289-3.1 18.038-2.28 27.41.354 4.038.938 8.071 1.004 12.129.029 1.834-.056 3.679-.384 5.485-.254 1.404-1.982 2.202-3.113 3.018-2.499 1.801-5.254 3.579-8.331 4.157-3.378.638-7.011-1.151-9.778-2.973-5.155-3.394-5.621-9.577-7.33-14.972-1.135-3.577-3.008-6.855-4.628-10.226-2.062-4.29-4.054-8.613-6.046-12.936-4.945-10.727-10.566-21.134-15.436-31.885-1.428-3.148-3.884-10.19-7.749-11.267-2.7-.752-2.188 13.794-2.101 15.49.341 6.58 1.332 12.825 1.019 19.45-.293 6.214-.168 12.432.258 18.64.4 5.877 1.642 11.614 1.642 17.493 0 2.921-.212 5.844.419 8.698.625 2.838.947 5.678.623 8.582-1.741 1.408-3.01 3.755-5.206 4.685-8.918 3.773-15.566-3.702-19.258-7.288-.013-6.692-.021-13.383-.015-20.075.002-3.476-.031-6.951.119-10.424.15-3.438.841-7.341.187-10.715-.666-3.429-1.058-6.927-.949-10.424.105-3.505.638-6.859.337-10.384-.629-7.377-1.098-14.633-1.087-22.045.02-13.974.498-27.85.938-41.79.208-6.586 3.784-9.967 8.478-13.979 1.546-1.322 2.41-1.394 4.422-1.646.708-.087 4.291-.813 4.653.182-.02-.05-5.313-.497-5.633-.272 1.047.034 5.526.928 6.435.303-.61.42-2.717.011-3.423-.01-.428-.016-2.811-.431-3.012-.293 12.843.409-.612.421 0 0zM148.484 569.648c8.231.134 14.515 6.85 14.52 14.916.002 4.304-1.055 8.569-1.519 12.832-.543 4.998-.35 10.109-.436 15.131-.146 8.389-.641 16.703-.556 25.111.041 3.941.034 7.897-.377 11.822-.373 3.568-1.274 6.967-1.213 10.582.106 6.313 1.921 12.676 1.275 18.991-.529 5.181-5.02 9.342-10.354 9.367-5.48.028-11.096-4.123-14.11-8.465-2.373-3.42-.979-7.776-.381-11.605.602-3.842 1.257-7.684 2.048-11.492.595-2.861.172-6.129.172-9.047 0-3.923-.121-7.857.177-11.77.59-7.764 1.195-15.526 1.802-23.288.574-7.366 1.544-14.927-1.467-21.911-2.418-5.61-3.983-11.409 1.399-15.901 2.26-1.885 5.172-3.16 7.733-4.589.549-.308 4.049-.767 2.534.122-.43.255-2.051 1.038-2.516.565-.402-.408 1.723-1.967 2.497-1.126.425.462-5.342 2.6-1.228-.245 4.314.071-4.948 3.421 0 0zM466.502 3.877c.739-.004 1.501.09 2.272.263-.251-.161-.93-.27-2.272-.263zm-14.053 69.226c-.39 6.975.868 0 0 0zM468.774 4.14c1.107.711-6.163 2.444-2.272-.263-4.773 3.321-9.951 4.415-13.012 9.369-2.037 3.296-1.33 7.679-2.603 11.971a188.42 188.42 0 0 1-7.288 20.299c-8.958 21.204-16.71 44.142-25.503 65.582-2.781 12.959-9.528 24.29-13.169 36.924-.429 1.484-1.13 6.475-3.131 6.693-2.796.306-2.53-3.546-2.876-5.544-1.027-5.962-1.783-11.968-2.415-17.984-1.321-12.602-2.086-25.252-3.411-37.854-.622-5.919-1.368-11.83-2.39-17.696a158.754 158.754 0 0 0-1.809-8.93c-.634-2.704-.469-5.407-.469-8.179-.65-2.919-1.341-7.706-2.081-10.41-3.55-12.959.784-27.711-11.45-32.27-3.245-2.085-8.916.518-10.931 1.561-11.612 6.015-7.313 15.645-10.931 28.627-5.6 20.093-8.732 43.372-14.053 64.54 0 3.256.386 6.545-.136 9.782-.485 3.015-1.411 5.979-2.068 8.961-1.364 6.205-1.319 12.678-1.842 18.989-.358 4.323-.46 10.211-3.086 13.938-3.101 4.399-5.72-4.76-6.257-6.595-.838-2.874-2.567-5.351-3.912-8-1.321-2.603-2.132-5.398-3.165-8.121-2.313-6.094-5.121-11.974-7.831-17.898-2.715-5.937-5.147-11.938-6.747-18.279-1.492-5.921-2.626-11.942-4.514-17.759-4.175-12.862-8.518-26.791-13.013-39.037l-2.081-10.411.521-5.205c-1.303-5.255-6.393-10.969-11.451-12.492-3.61-2.414-10.624.435-13.013 2.603-5.245 4.763-4.885 12.396-3.122 20.819.676 3.23-.015 7.835.521 10.41l-.521 12.492c1.188 5.697.583 12.044.141 17.791-.227 2.938-.502 5.897-1.08 8.789-.735 3.676.479 7.714-.045 11.484-.651 4.677-1.275 8.89-.958 13.638.291 4.35-.128 8.776-.134 13.138-.006 4.58.025 9.161-.17 13.737-.188 4.394-1.224 8.808-1.295 13.173-.083 5.03.473 10.005.186 15.071-.262 4.667-.434 9.306-.404 13.982.063 9.718-.856 19.192-1.74 28.856-.461 5.021-.575 10.06-.979 15.085-.371 4.607-1.369 9.13-1.75 13.731-.754 9.141 1.402 18.125 1.927 27.194.14 2.423-.225 4.993.216 7.382.329 1.785 1.435 3.134 2.093 4.776 1.336 3.341.124 7.153.64 10.632.934 6.304 4.451 12.584 10.993 14.287 4.353 1.133 9.008.2 13.33-.61a156.223 156.223 0 0 1 13.38-1.921c9.783-.971 19.62-1.001 29.438-1.359 9.678-.353 19.252-1.783 28.89-2.633 5.008-.441 10.041-.337 15.047-.762 4.53-.384 8.976-1.368 13.484-1.921 9.582-1.174 19.264-1.306 28.849-2.485 4.664-.574 9.238-1.908 13.942-2.145 4.462-.224 8.867.727 13.178 1.777 6.042 1.472 13.342 2.883 18.897-.828 3.175-2.122 5.282-5.772 5.136-9.628-.156-4.129-2.146-8.025-2.599-12.152-.536-4.877.725-9.539.73-14.387.007-4.457.25-8.466 1.254-12.833 2.097-9.113 3.126-18.417 5.208-27.538 1.027-4.496.758-9.085 1.512-13.625.729-4.404 1.917-8.715 3.095-13.015 2.486-9.084 5.005-18.09 3.853-27.582-.618-5.091-1.629-9.536-1.076-14.695.498-4.655.053-9.37.259-14.044.222-5.046 1.561-10.028 1.412-15.087l-.417-14.157c4.003-18.296 1.597-40.174 5.725-58.815l.521-17.176c.737-2.947 2.406-6.179 3.124-8.848 1.98-7.371-5.5-15.383-12.302-16.91zm-13.235 71.777a142.256 142.256 0 0 1-.292 6.627c-.254 3.701-.667 7.395-1.324 11.046-.686 3.8-.953 7.208-.953 11.088 0 4.096-.894 8.054-1.441 12.115-.585 4.336-1.646 8.74-1.729 13.117-.076 4.102.013 7.81-.98 11.831-1.843 7.46-3.882 15.444-3.747 23.167.076 4.291 1.31 8.402 1.343 12.688.034 4.171.146 8.339.188 12.509.087 8.671-.553 16.933-2.289 25.425-1.724 8.43-3.257 16.9-4.931 25.341-1.305 6.574-1.653 12.961-2.133 19.599-.198 2.737-.647 5.74-2.443 7.932-2.207 2.695-5.947 2.914-9.141 3.437-9.609 1.576-19.347 2.175-29.043 2.955-9.556.768-18.935 2.426-28.443 3.448-4.906.527-9.817.359-14.738.557-4.666.187-9.253.902-13.888 1.41-4.972.544-9.972.881-14.975.845-4.613-.032-9.185-.657-13.793-.698-9.242-.079-19.372 1.997-28.287-1.159-3.757-1.33-7.534-2.725-8.495-6.934-.846-3.704-1.283-7.644-1.67-11.416-.513-5.002-.618-10.048-.255-15.065.342-4.731 1.172-9.375 1.243-14.131.148-9.802-.862-19.574-.189-29.379.33-4.814 1.139-9.489 1.032-14.338-.099-4.52-.221-8.997-.11-13.521.12-4.906-.033-9.817.208-14.721.226-4.575 1.22-9.003 1.22-13.591 0-9.428-.788-19.118.458-28.489.344-2.583.847-4.893.645-7.518-.148-1.929.48-3.687.445-5.585-.028-1.519-1.028-9.063 1.869-8.481 2.893.58 3.578 4.426 4.062 6.844.695 3.47 1.046 7.019 1.941 10.446 1.106 4.236 3.768 7.397 5.773 11.188 2.044 3.86 3.045 8.304 4.356 12.447 2.887 9.112 7.152 17.812 10.785 26.644 3.655 8.886 7.588 17.808 10.579 26.942 2.854 8.719 2.728 18.198 6.003 26.779 5.787 15.162 30.496 8.793 31.35-6.537.239-4.293-1.233-8.442-1.979-12.617-.778-4.359-.312-8.654.46-12.981.881-4.943 1.79-9.795 2.054-14.822.238-4.555.368-9.033.985-13.56.633-4.637.79-9.361 1.705-13.955.898-4.511-.367-8.596-.205-13.095.165-4.6 1.91-9.04 2.929-13.491 1.056-4.609 2.151-9.217 3.123-13.846 1.007-4.806.771-9.715 1.97-14.449.564-2.228 1.123-4.464 1.462-6.74.241-1.625-.354-4.073 1.896-3.982 2.131.086 1.794 1.196 2.139 3.041.39 2.084.733 4.175 1.046 6.272.695 4.663 1.233 9.348 1.693 14.04.957 9.776 1.575 19.583 2.583 29.354.989 9.611 3.511 19.196 3.344 28.823-.088 5.09-.157 10.169-.084 15.26.063 4.485-.547 8.912-.539 13.387.009 4.664.272 9.422 1.215 13.996.863 4.189 2.446 8.121 3.598 12.222 2.443 8.704-2.518 15.592-3.439 24.001-.606 5.525 1.711 16.166 7.962 17.897 5.769 1.598 13.899 1.356 19.062-1.863 7.364-4.592 6.229-13.688 5.049-21.069-.749-4.695-1.059-9.112-.192-13.817.803-4.372 2.126-8.622 3.383-12.879 2.657-9.005 3.074-18.322 5.527-27.332 2.588-9.505 5.654-18.905 8.713-28.266 1.552-4.745 1.95-9.372 2.554-14.286.542-4.417 2.392-8.246 3.908-12.376 3.244-8.838 5.475-18.048 8.59-26.943 2.677-7.64 7.73-15.4 8.188-23.604 2.706.002 3.15-.097 3.089 2.816z"/>
</svg>
