<svg xmlns="http://www.w3.org/2000/svg" width="1000" height="700">
  <path d="M262.47 322.415c11.633.759 16.375 13.102 15.846 23.237-.692 13.256 2.332 27.818-15.298 27.409-13.956-.342-12.094-17.932-12.165-27.71-.049-6.802.469-13.63 5.868-18.425 2.162-1.92 7.38-7.013 10.695-3.737-.364-.359-4.609 2.012-5.425.053-.436-1.048 5.279-1.184 5.36.055.064.943-5.074 1.15-5.379-.056-.623-2.465 5.693.195 5.655.227-1.049.834-7.191.568-5.157-1.053 10.135.661-3.735 2.978 0 0zM129.226 316.171c6.018-.167 12.301 2.834 15.41 8.098 3.632 6.151.515 12.598-.6 18.953-1.011 5.763-4.674 34.048 4.969 32.988 10.193-1.121 24.369-11.122 32.212-17.349 5.147-4.086 10.579-8.776 17.175-5.025 4.41 2.507 11.571 7.821 10.936 13.725-1.124 10.469-26.09 15.879-33.488 20.335-2.303 1.387-12.169 5.912-8.924 9.451 4.395 4.802 13.894 4.94 19.845 5.431 12.866 1.061 27.96-.827 36.062 11.202 3.727 5.533 4.892 11.375-.434 16.265-6.264 5.751-12.816 3.595-19.516-.085-12.857-7.059-29.113-9.512-43.431-12.3-18.64-3.639-12.531 12.598-11.55 25.365.779 10.132 10.013 29.55-1.949 34.963-11.88 5.377-19.933-1.545-21.339-13.343-1.489-12.49.167-25.212-.893-37.746-1.319-15.601-1.446-30.558-1.986-46.147-.495-14.292.259-28.705-.507-42.995-.225-4.174-2.14-12.234.504-15.966.447-.631 9.919-7.385 10.107-5.538-.897.544-1.845.638-2.844.284-.484-.709 3.013-.907 2.983-.294-.043.917-3.821.786-2.742-.272.962-.201 1.872-.115 2.73.258.067.633-4.052 1.038-2.73-.258 7.035-.195-2.001 1.961 0 0zM406.126 357.288c6.493-.013 12.396 5.031 14.856 10.785 2.717 6.354-.93 11.167-4.595 16.121-9.433 12.752-11.937 31.319-15.957 46.33-3.943 14.724-9.883 28.443-11.587 43.673-1.848 16.514-20.401 19.112-27.527 4.172-2.646-5.548-3.303-11.762-5.536-17.457-2.8-7.146-7.139-13.543-10.193-20.569-1.658-3.817-2.598-14.818-7.977-15.602-3.381-.492-3.834 18.452-4.148 21.105-.963 8.113-.842 16.298-1.351 24.441-.433 6.938-2.497 13.914-2.302 20.862.322 11.517-2.825 28.198-18.728 18.979-13.776-7.986-2.716-22.845-1.366-34.529 1.84-15.93 2.22-32.048 4.088-48.008 1.585-13.542 4.813-31.096 1.096-44.416-3.853-13.807 9.699-25.977 22.094-16.467 4.846 3.72 6.57 10.899 8.608 16.326 2.778 7.396 5.968 14.633 8.895 21.972a362.57 362.57 0 0 1 7.862 21.662c.694 2.122 7.165 21.916 11.487 15.521 3.766-5.576 5.05-13.982 7.085-20.3 2.628-8.155 5.042-16.38 7.691-24.528 4.029-12.39.893-32.39 14.367-38.905 1.292-.624 4.689-2.617 6.066-.913a10.17 10.17 0 0 1-3.033.434c-.031-.008 1.829-1.379 2.597-.447.033.04-2.364.731-2.869.396-.698-.465 3.203-1.065 3.048-.331-.141.688-4.277.79-2.671-.307 7.343-.015-2.611 1.782 0 0zM522.715 361.973c13.374.065 24.298 22.713 6.236 23.062-6.204.12-12.312-1.245-18.105 1.833-7.196 3.818-13.315 9.958-17.477 16.918-7.558 12.639-10.504 24.658-7.364 39.013 3.032 13.844 7.438 26.96 12.853 40.1 4.646 11.273 14.46 21.608 27.228 14.448 8.989-5.041 14.559-14.392 19.191-23.267 2.867-5.491 9.114-16.137 5.63-22.492-4.914-8.961-23.317 5.856-31.964-4.028-8.521-9.741-2.006-26.217 11.683-25.459 7.029.39 12.241 5.674 19.603 5.426 8.506-.286 15.258-4.604 23.19.292 14.758 9.108 3.599 20.881-.428 32.608-5.43 15.815-12.912 31.001-23.21 44.268-9.204 11.858-21.557 18.993-36.922 17.814-17.09-1.312-25.95-14.941-32.128-29.321-6.598-15.357-12.383-31.052-17.804-46.859-5.732-16.724-.3-33.288 7.732-48.64 5.32-10.166 13.108-19.264 22.454-25.938 4.637-3.312 9.988-6.47 15.617-7.69 2.363-.514 15.537-.044 16.911-1.863-.547.726-3.285.256-3.212.17.354-.419 2.81-.919 2.978-.106.11.539-2.702.585-3.062.325-.711-.512 3.274-.915 3.085-.295-.213.694-4.422.725-2.715-.319 7.377.036-2.825 1.728 0 0zM259.869 382.793c9.532-.193 20.979 7.894 19.46 18.782-.778 5.584-3.489 10.844-4.521 16.429-1.233 6.677-.698 13.49-1.846 20.147-1.962 11.375-4.413 22.796-5.624 34.294-.988 9.383 4.687 26.562-8.766 29.471-26.949 5.828-12.097-37.979-10.603-49.689 1.6-12.56 5.931-30.248 2.862-42.621-1.583-6.384-2.308-12.716.581-18.871.813-1.731 6.282-9.688 9.342-7.952-.215.553-.594.681-1.138.384.384-.486.817-.553 1.301-.197-.333.319-.728.427-1.188.322.054-.832.6-.952 1.638-.36.216.231-2.463.755-1.498-.139 3.764-.076-1.32 1.223 0 0zM647.631 449.415c17.737-.638 15.503 24.88 13.633 36.194-1.989 12.041 4.234 38.21-17.625 33.503-15.416-3.32-5.239-32.756-5.63-42.599-.258-6.476-3.96-15.78.364-21.597.803-1.077 9.692-5.056 9.604-5.406a2.673 2.673 0 0 1-1.625.955c-.077-1.366 2.596-1.255 3.276-.875.319.179-2.077 1.113-2.63.685-.533-.413 2.777-1.779 3.09-.62.166.611-5.058 1.545-2.457-.24 6.542-.235-3.59 2.463 0 0zM942.748 483.767c14.556.596 17.58 18.07 20.302 29.183 3.937 16.072 9.97 32.024 11.182 48.626 1.111 15.196 5.303 30.492 7.134 45.695.903 7.503 1.243 15.296 4.235 22.349 2.716 6.397 7.459 13.011.817 18.866-9.661 8.518-23.297-1.349-22.74-12.646.76-15.411-1.688-29.05-4.342-44.318-2.685-15.447-5.542-30.637-9.534-45.769-.916-3.474-3.468-17.41-7.862-7.96-3.994 8.583-5.892 17.942-7.347 27.24-1.101 7.046-2.088 14.092-3.335 21.114-1.098 6.176.571 13.873-1.771 19.661-7.726 19.079-26.238 1.185-31.625-8.578-2.967-5.377-7.622-9.278-10.689-14.489-1.767-3.002-3.487-6.409-6.172-8.713-6.114-5.246-5.066 27.573-5.386 31.393-.646 7.738-1.076 15.431-.757 23.197.229 5.553 2.428 17.664-1.761 22.122-4.09 4.352-10.588 5.106-15.975 3.121-9.011-3.319-8.524-9.589-6.743-17.656 3.023-13.655 2.927-28.125 3.2-42.06.152-7.744 1.008-14.843.474-22.647-.605-8.822 2.102-16.965.973-25.938-1.021-8.116-1.369-19.875 7.439-24.122 9.774-4.712 18.24 6.229 20.918 14.092 3.004 8.817 8.965 15.908 13.79 23.734 2.643 4.287 4.95 12.291 9.838 14.491 5.063 2.279 7.411-14.582 7.911-17.123 2.38-12.123 5.962-23.951 9.931-35.639 3.134-9.229 4.758-21.466 9.374-29.887 1.656-3.021 4.364-5.178 7.397-6.713.786-.399 8.134-.612 7.997.08-.329 1.673-7.112.034-6.967-.589.304-1.269 5.336 1.094 5.648.542-1.014 1.775-5.61-.614-5.554-.659-1.653-.068 4.262.101 3.6.62-.707.554-4.968.453-3.6-.62 7.035.288-2.573 2.018 0 0zM149.004 499.903c6.372-.101 12.335 3.611 15.352 9.172 4.315 7.952-.219 14.812-.417 22.936-.268 10.958 4.333 25.645-12.553 24.284-15.457-1.245-11.697-16.949-12.34-28.042-.351-6.052-1.903-16.362 1.585-21.678 1.678-2.556 4.475-4.042 6.951-5.668 1-.658 4.818-.161 5.002-.344-.623.622-4.879.801-4.249-.042.993-1.329 5.191-.07 5.023.121-.442.509-4.808 1.451-5.098.271-.381-1.546 2.985-1.235 2.835-.551-.166.762-2.546 1.363-3.147 1.033-.146-.7.206-1.197 1.056-1.492 7.561-.119-4.675 3.571 0 0zM725.184 523.846c15.333.248 17.316 15.863 14.46 27.303-3.237 12.965-.229 29.558.933 42.774 1.251 14.242 6.568 28.062 13.117 40.676 5.794 11.161 17.202 20.711 22.285 2.913 7.213-25.257 6.032-56.898 1.415-82.594-1.956-10.91-7.35-23.516 7.645-28.469 13.889-4.584 16.751 16.179 16.415 24.109-1.205 28.392 1.808 55.997-2.839 84.152-2.178 13.156-3.316 25.158-15.632 32.778-10.976 6.79-23.608 6.406-32.952-3.194-4.05-4.161-5.998-9.549-8.632-14.598-3.118-5.981-7.896-10.782-10.918-16.895-6.109-12.356-10.757-26.13-12.455-39.826-1.861-15.048-1.945-30.329-3.476-45.429-.626-6.183-1.425-14.95 4.101-19.378 1.781-1.427 7.256-6.576 9.649-3.835-.246-.277-2.702.997-3.461.348-.545-.468 2.68-1.559 2.981-.418.162.607-2.741.953-3.15.494-.754-.846 2.667-1.46 3.121-.517.276.573-4.935 1.46-2.607-.394 7.183.116-3.106 2.473 0 0zM391.551 526.446c5.244.304 10.228 3.16 15.414 4.073 6.934 1.222 13.893 1.818 20.881 2.566 6.719.719 12.982 2.898 19.813 2.666 6.514-.222 11.62 1.497 15.621 6.912 8.713 11.791-4.521 20.377-16.337 18.712-12.426-1.751-24.682-11.677-37.821-8.811-8.471 1.848-4.955 23.963-4.453 30.106 1.217 14.914 22.127 4.248 30.789 5.755 5.09.886 9.028 4.945 11.234 9.417 4.099 8.307.494 10.749-7.458 13.514-9.021 3.136-30.502-5.543-31.452 8.71-.83 12.454 5.22 20.746 18.161 18.9 7.051-1.005 14.32-5.145 20.991-.602 3.779 2.573 9.431 9.912 7.86 14.955-3.848 12.355-22.594 6.967-31.667 6.695-9.118-.272-32.47 3.097-34.324-10.466-1.06-7.761 1.35-28.554-6.458-32.921-4.873-2.727-10.414-7.013-9.976-13.271.504-7.213 6.529-9.488 9.546-15.011 2.631-4.814.155-12.758.082-17.959-.098-7.13-.608-13.916-1.946-20.923-1.221-6.389-1.331-12.648 3.919-17.337.384-.343 8.578-5.635 8.469-5.2-.374.786-.989 1.231-1.847 1.335-1.659.062 1.636-2.926 1.673-1.48.018.691-1.687 1.494-2.247 1.462-.06-.864.451-1.464 1.533-1.797 4.123.24-5.255 4.183 0 0 4.161.242-5.255 4.183 0 0zM202.616 529.57c19.948-.244 15.04 21.418 15.263 34.381.325 18.945-1.208 37.889-1.844 56.802-.212 6.323-.958 13.729 2.895 19.227 5.211 7.434 16.604 7.194 24.631 7.985 7.368.727 17.124-.307 21.592 6.286 5.143 7.588 7.874 14.806-3.812 18.142-8.049 2.299-16.786-1.688-24.439-3.845-7.87-2.219-16.933-1.735-25.077-2.503-8.012-.754-12.374-3.816-16.27-10.83-5.538-9.969-.292-16.048.305-26.309 1.08-18.532.648-38.854-.842-57.348-.765-9.488-1.846-18.963-2-28.495-.074-4.624 1.307-8.082 4.985-10.951 2.832-2.21 6.652-.971 8.902-2.501a86.4 86.4 0 0 1-4.289-.041 7.419 7.419 0 0 1 2.518.044c-.84.019-1.679.004-2.518-.044.817-.31 1.548-.279 2.194.092-.313.052-2.143-.127-2.194-.092 7.751-.094-.613.419 0 0zM37.621 609.725c-13.773 0 15.18 76.861-19.355 61.247-13.267-5.998-6.462-24.117-6.186-34.718.466-17.838.035-35.741.035-53.585 0-7.695.078-15.393.058-23.088-.016-6.16-2.928-13.354-.43-19.253 6.728-15.888 24.567-7.422 27.174 6.029 2.331 12.02 8.376 22.468 11.314 34.272.727 2.92 1.84 9.151 5.311 10.205 4.076 1.236 7.287-13.193 8.162-15.695 4.044-11.581-1.374-28.941 10.69-36.367 15.229-9.374 22.47 8.37 24.07 19.954.918 6.645 4.735 12.659 6.398 19.164 2.084 8.144 3.861 16.369 5.208 24.668 2.558 15.763 3.712 31.866 4.792 47.775.652 9.608 10.921 24.68 1.074 31.524-12.237 8.507-22.824-2.705-21.334-15.511 1.734-14.9-1.806-30.485-4.156-45.291-1.148-7.242-1.232-16.741-4.759-23.299-4.569-8.495-8.79 9.505-9.524 12.413-2.615 10.345-.672 31.766-15.014 32.376-15.809.675-21.784-20.268-23.528-32.82-1.055 0 .47 2.468.208 2.747a4.38 4.38 0 0 0-.208-2.747c-.496.928-.456 1.844.119 2.749a26.56 26.56 0 0 0-.119-2.749c-.524 0 .036 2.404.161 2.678.332-.851.278-1.744-.161-2.678-1.312 0 .864 6.199 0 0zM657.522 535.815c15.896 1.321 15.269 17.997 14.482 29.295-.991 14.26 2.444 29.075 3.486 43.298 1.108 15.126 2.217 30.425 2.539 45.595.172 8.081 1.987 16.466 1.453 24.5-.507 7.611-10.396 8.496-16.458 6.24-11.488-4.275-5.532-26.361-6.055-36.536-.776-15.142-1.634-30.352-3.23-45.464-1.564-14.813-1.811-29.818-7.425-43.731-2.446-6.062-2.497-11.732 2.172-16.715.548-.584 11.088-9.512 11.889-6.149.029.123-2.668-.461-2.853-.333a9.019 9.019 0 0 1 3.113.348c-.384-.225-2.827-.544-3.113-.348 1.066.018 2.117.14 3.152.367-.682.469-2.768-.631-3.152-.367 7.107.591-.613.422 0 0zM306.192 537.896c18.031.845 14.92 31.188 15.229 43.075.489 18.815-1.397 37.497-.678 56.227.234 6.101-.758 16.02 7.321 17.202 5.141.752 10.211.037 15.34 1.323 5.216 1.304 10.638 3.26 16.014 3.712 8.831.742 15.926 2.052 19.087 11.592 4.153 12.535-11.325 13.418-19.582 10.626-8.367-2.836-16.044-6.18-25.079-6.071-8.698.104-20.469 4.505-28.466-.48-6.644-4.143-6.35-12.305-6.069-19.152.396-9.666-.609-19.282-.23-28.906.748-19.138.271-37.258-.89-56.384-.473-7.824-5.668-17.369-2.277-24.841 1.634-3.6 4.324-6.286 8.185-7.311 1.508-.399 5.616.501 6.697-.225-1.506.998-3.213-1.309-4.602-.387 1.179.229 2.368.342 3.568.34-1.006.667-2.869-.8-3.568-.34a18.836 18.836 0 0 1 3.413.296c.038.022-3.803-.037-3.413-.296 7.047.331-1.087.723 0 0zM539.369 546.225c11.076.354 15.635 11.604 19.252 20.335 6.184 14.924 14.847 28.747 21.438 43.511 2.329 5.218 4.431 14.199 9.277 17.854 4.476 3.373 3.703-9.983 3.879-11.694.727-7.064 2.665-13.997 3.17-21.067.312-4.362.956-8.741.475-13.122-.491-4.455-2.643-8.774-1.836-13.341 2.069-11.729 16.579-16.205 23.974-6.711 3.34 4.289 4.552 10.218 2.265 15.279-3.422 7.575-3.51 15.773-4.483 23.9-1.936 16.143-2.236 32.39-4.115 48.552-1.527 13.134 7.267 33.127-11.174 36.586-14.484 2.738-17.478-19.305-21.735-28.171-7.17-14.914-14.655-29.75-21.482-44.82-3.899-8.6-9.63-16.464-9.926-2.18-.277 13.44.483 27.337 1.134 40.767.344 7.088 1.861 14.12 1.861 21.219 0 5.599 3.106 14.77-.594 18.914-4.052 4.539-9.877 5.177-15.159 2.167-8.371-4.771-7.681-9.463-7.686-18.449-.019-32.39-1.88-64.653-.969-97.104.213-7.545-1.476-18.114 3.071-24.663.968-1.393 13.103-12.691 14.997-7.487-.144-.354-5.18-.594-5.634-.275 1.687.055 4.918 1.348 6.436.304-1.693 1.164-4.957-1.316-6.436-.304 1.541.049 3.939-.127 5.549.26-.639-.154-5.194-.505-5.549-.26 13.814.44-.611.421 0 0zM148.484 569.648c10.572.172 15.372 9.821 14.231 19.208-1.636 13.463-1.826 26.832-2.147 40.398-.298 12.565-2.563 25.961-.983 38.381 1.325 10.412-1.571 26.664-16.226 19.047-11.468-5.96-8.692-15.421-6.726-26.026 2.181-11.762 1.063-24.303 1.992-36.28.99-12.766 2.61-24.099-1.669-36.368-2.612-7.49 3.409-19.63 12.915-18.049.029.005-1.807 1.923-2.654 1.06-.439-.444 1.784-1.9 2.497-1.126.466.508-3.032 1.463-2.64.918.629-1.121 1.465-1.441 2.51-.961.495.396-2.024 1.506-2.507 1.308.039-.758.509-1.261 1.407-1.51 8.231.134-4.948 3.421 0 0zM466.502 3.877a10.15 10.15 0 0 1 2.271.263c-.25-.161-.929-.27-2.271-.263zm-14.054 69.226c-.389 6.975.869 0 0 0zM468.774 4.14c.547.352-2.659 1.296-3.166 1.166-.481-.62-.183-1.097.895-1.429-5.025 3.496-12.383 5.294-14.1 12.026-1.689 6.624-2.518 13.022-4.867 19.562-5.871 16.345-12.835 32.344-18.95 48.612-5.693 15.145-10.594 30.685-16.751 45.605-2.693 6.524-5.699 13.079-7.296 19.981-1.589 6.867-4.623 5.255-5.618-.492-5.306-30.79-5.279-62.447-10.99-93.121-1.927-10.349-1.454-23.911-5.736-33.448-5.061-11.271-20.997-8.155-25.421 2.017-2.053 4.719-1.788 10.199-2.481 15.207-.974 7.04-3.333 13.917-4.863 20.854-3.659 16.595-6.304 33.408-10.449 49.896 0 13.513-3.215 26.915-4.252 40.483-.13 1.7-1.406 14.549-5.382 12.124-3.354-2.046-4.433-9.702-6.24-12.919-15.353-27.325-21.581-58.906-31.375-88.38-2.472-7.438-5.169-14.575-6.707-22.267-1.294-6.472.472-10.86-4.491-16.321-8.858-9.75-24.035-5.46-24.431 8.345-.377 13.147 1.707 26.974 1.853 40.201.164 14.864-3.621 29.8-2.633 44.634.981 14.672-1.982 29.248-1.564 43.812.477 16.617-.111 33.458-1.614 50.014-1.314 14.481-4.28 30.153-2.831 44.633.743 7.418.524 15.626 1.867 22.891.57 3.091 2.632 4.893 2.738 8.244.139 4.415-.296 8.257 1.439 12.455 5.855 14.17 21.362 8.239 32.898 6.836 17.728-2.157 35.666-1.598 53.44-3.531 14.925-1.624 30.051-3.15 45.013-4.315 15.618-1.216 32.345-5.801 47.736-2.053 12.856 3.132 27.498-.263 22.845-16.533-4.09-14.299.412-30.814 2.848-45.088 2.41-14.122 3.754-28.571 7.541-42.385 4.59-16.777 3.184-32.172 3.016-49.292-.14-14.276.445-29.675 2.305-43.766 2.247-17.028.705-34.474 4.436-51.322.29-9.54 1.21-16.97 3.645-26.024 2.016-7.528-5.388-15.359-12.307-16.912 1.107.711 6.801 1.527 0 0zm-13.236 71.777c-.308 14.529-2.114 29.822-4.515 44.139-1.198 7.145-.475 14.684-2.204 21.685-2.204 8.921-4.661 18.153-3.372 27.411 2.345 16.846 1.309 33.962-1.98 50.596-1.644 8.315-3.517 16.663-4.76 25.048-1.005 6.777.701 17.991-3.899 23.605-3.471 4.238-12.597 4.022-17.405 4.576-8.27.952-16.588 1.333-24.865 2.196-16.471 1.716-33.114 2.619-49.514 4.627-14.367 1.759-28.516.24-42.898.986-7.011.364-13.853.158-20.403-2.642-7.81-3.338-7.254-13.798-7.695-21.056-.928-15.256.964-31.061.875-46.418-.091-15.691.969-31.565 1.244-47.299.26-14.871-.162-31.04 1.795-45.759.709-5.314 1.102-10.75.919-16.106-.215-6.315 4.125-6.822 5.67-.642 7.375 29.483 22.241 56.908 32.53 85.773 3.746 10.509 2.148 30.88 12.74 37.295 7.915 4.793 19.645.912 24.1-6.9 4.787-8.394-1.271-18.537-.305-27.529 1.298-12.075 2.855-24.091 4.079-36.193 1.131-11.184.158-22.902 3.16-33.711 3.211-11.561 4.154-23.359 6.772-34.985.294-1.305.062-7.471 2.543-7.37 3.347.135 3.36 10.426 3.678 12.814 1.762 13.247 2.413 26.605 3.783 39.893 1.405 13.654 3.204 26.488 3.23 40.267.022 11.846-1.691 23.748 1.767 35.318 1.5 5.02 3.662 9.833 3.085 15.196-.624 5.796-3.352 11.108-3.987 16.908-.87 7.937 2.38 17.252 11.019 18.537 10.817 1.609 21.851-2.633 21.917-14.873.063-11.604-2.02-20.631 1.383-32.202 3.742-12.722 4.995-25.916 8.797-38.648 3.753-12.57 6.281-25.08 9.569-37.646 3.148-12.032 7.754-24.344 11.872-36.103 1.989-5.676 5.021-10.928 6.832-16.673a28.283 28.283 0 0 0 1.355-6.931c2.456.002 3.144.165 3.088 2.816-.047 2.211.062-2.913 0 0z"/>
</svg>
