<?xml version="1.0" standalone="no"?>
<!DOCTYPE svg PUBLIC "-//W3C//DTD SVG 20010904//EN"
 "http://www.w3.org/TR/2001/REC-SVG-20010904/DTD/svg10.dtd">
<svg version="1.0" xmlns="http://www.w3.org/2000/svg"
 width="800.000000pt" height="800.000000pt" viewBox="0 0 800.000000 800.000000"
 preserveAspectRatio="xMidYMid meet">
<metadata>
Created by potrace 1.11, written by Peter Selinger 2001-2013
</metadata>
<g transform="translate(0.000000,800.000000) scale(0.100000,-0.100000)"
fill="#000000" stroke="none">
<path d="M6645 7890 c3 -4 -13 -12 -35 -18 -27 -6 -40 -6 -43 1 -5 16 -168
-149 -229 -233 -98 -135 -179 -286 -260 -488 -50 -125 -186 -524 -195 -571 -2
-14 -6 -27 -8 -31 -2 -3 -26 -76 -54 -160 -27 -85 -61 -186 -76 -225 -14 -38
-66 -198 -115 -355 -142 -455 -206 -656 -255 -800 -25 -74 -47 -142 -49 -150
-8 -33 -128 -356 -170 -459 -82 -200 -155 -333 -198 -360 -69 -43 -130 156
-163 529 -3 36 -7 76 -10 90 -2 14 -6 63 -10 110 -11 157 -13 185 -19 260 -4
41 -8 107 -11 145 -3 39 -7 99 -9 135 -3 36 -8 106 -11 155 -4 50 -8 106 -10
125 -2 19 -6 76 -9 125 -4 50 -9 110 -11 135 -3 25 -7 77 -10 115 -3 39 -7 90
-10 115 -2 25 -7 74 -10 110 -3 36 -8 76 -10 90 -3 14 -7 50 -10 80 -6 67 -13
133 -20 180 -3 19 -8 53 -10 75 -3 22 -8 51 -10 65 -2 14 -9 54 -14 90 -6 36
-13 76 -16 90 -3 14 -8 41 -11 60 -49 273 -143 525 -228 612 -53 54 -140 98
-208 105 -211 21 -392 -326 -513 -987 -24 -126 -45 -250 -50 -295 -3 -22 -7
-50 -9 -62 -3 -11 -7 -43 -11 -70 -4 -26 -17 -104 -31 -173 -13 -69 -26 -143
-29 -165 -4 -22 -8 -47 -11 -56 -2 -9 -7 -34 -10 -55 -2 -22 -6 -46 -9 -54 -2
-8 -7 -33 -10 -55 -2 -22 -7 -51 -10 -65 -12 -60 -15 -77 -20 -115 -3 -23 -7
-50 -9 -60 -4 -21 -15 -89 -22 -140 -2 -16 -6 -41 -9 -55 -3 -14 -7 -38 -9
-55 -32 -197 -48 -296 -52 -325 -12 -82 -22 -142 -31 -185 -2 -11 -6 -36 -9
-55 -3 -19 -7 -46 -10 -60 -3 -14 -7 -36 -9 -50 -2 -14 -16 -86 -30 -160 -15
-74 -29 -144 -31 -155 -2 -11 -7 -33 -11 -50 -8 -36 -7 -32 -17 -75 -19 -89
-67 -228 -81 -233 -17 -7 -73 53 -139 153 -158 234 -349 737 -496 1300 -73
280 -146 523 -280 930 -21 63 -61 192 -89 285 -28 94 -55 184 -61 200 -32 101
-82 335 -90 419 -7 83 -14 111 -44 171 -79 159 -249 269 -404 261 -104 -6
-192 -70 -237 -172 -19 -43 -26 -66 -40 -124 -2 -7 -18 -110 -21 -135 -10 -75
-3 -374 11 -505 2 -19 7 -71 11 -115 3 -44 8 -88 10 -98 25 -134 24 -526 -1
-832 -3 -27 -7 -106 -10 -175 -3 -69 -7 -172 -10 -230 -8 -178 -21 -637 -30
-1080 -14 -652 -28 -1013 -50 -1304 -3 -45 -8 -97 -10 -116 -2 -19 -7 -64 -10
-100 -3 -36 -8 -81 -10 -100 -2 -19 -7 -60 -10 -90 -3 -30 -8 -71 -10 -90 -9
-76 -25 -268 -30 -370 -5 -79 -5 -431 -1 -480 2 -19 7 -69 11 -110 8 -82 10
-109 20 -250 12 -186 15 -226 21 -280 3 -30 7 -66 9 -79 3 -13 7 -45 11 -70 3
-25 12 -73 20 -106 75 -309 198 -434 429 -439 56 -1 261 21 276 30 3 2 21 6
40 9 19 3 66 12 104 20 126 26 312 39 685 50 91 3 212 7 270 10 97 5 129 8
250 20 25 3 74 7 110 10 36 3 85 7 110 10 70 7 140 14 200 20 30 3 75 7 100
10 25 3 70 7 100 10 118 11 166 16 200 20 19 3 64 7 100 10 36 3 83 8 105 10
38 4 102 10 225 20 30 3 82 7 115 10 128 11 172 15 235 20 123 10 185 16 200
20 8 2 35 7 60 10 25 3 79 12 120 20 209 38 377 39 545 1 66 -14 131 -28 143
-31 12 -3 32 -8 45 -11 12 -3 63 -7 113 -10 240 -10 354 90 382 334 9 75 7
322 -2 422 -26 276 -27 474 -2 580 3 14 8 34 10 45 3 11 16 72 30 135 14 63
28 131 31 150 3 19 11 55 16 80 6 25 13 56 15 70 2 14 7 36 10 50 3 14 8 34
10 45 1 11 6 34 9 50 13 69 45 243 50 275 3 19 7 46 10 60 6 34 16 89 20 120
7 46 24 164 30 205 9 60 13 85 20 145 4 30 9 63 10 72 2 9 7 48 10 85 4 37 9
75 10 83 2 8 6 47 10 85 4 39 8 84 10 102 2 17 7 69 10 115 3 45 8 97 10 114
3 18 7 78 10 135 3 57 8 131 11 164 4 33 8 373 9 755 2 382 6 724 8 760 3 36
8 110 12 165 3 55 8 116 10 135 2 19 7 71 10 115 4 44 8 96 10 115 2 19 6 62
10 95 3 33 8 77 10 98 3 20 7 56 10 80 3 23 7 58 10 77 3 19 7 55 10 80 9 67
14 94 40 220 13 63 26 126 29 140 3 14 10 50 16 80 6 30 13 78 16 105 4 28 9
54 11 59 3 4 7 79 9 165 5 275 -41 399 -186 498 -41 27 -146 61 -135 43z
m-341 -1782 c11 -18 14 -48 11 -133 -7 -171 -20 -387 -30 -495 -3 -25 -7 -76
-10 -115 -4 -38 -8 -86 -10 -105 -2 -19 -7 -64 -10 -100 -3 -36 -8 -82 -10
-102 -10 -82 -14 -115 -21 -178 -3 -36 -8 -72 -9 -81 -2 -8 -6 -48 -10 -88 -3
-40 -8 -81 -10 -91 -2 -10 -6 -47 -10 -82 -3 -35 -7 -74 -10 -88 -5 -30 -12
-90 -21 -185 -3 -38 -8 -77 -9 -86 -2 -9 -6 -54 -10 -100 -4 -46 -8 -100 -10
-119 -2 -19 -7 -75 -10 -125 -4 -49 -8 -110 -10 -135 -6 -72 -16 -377 -20
-605 -2 -115 -6 -235 -9 -265 -10 -99 -24 -204 -31 -237 -3 -12 -7 -40 -10
-63 -3 -22 -14 -87 -25 -143 -38 -199 -46 -271 -65 -557 -10 -158 -30 -333
-45 -405 -5 -22 -11 -54 -14 -70 -20 -115 -87 -237 -156 -284 -78 -53 -249
-112 -400 -136 -19 -3 -46 -7 -60 -10 -23 -4 -49 -8 -147 -20 -74 -9 -182 -18
-353 -30 -113 -7 -395 -15 -780 -20 -190 -3 -372 -7 -405 -10 -33 -2 -107 -7
-165 -10 -58 -3 -143 -8 -190 -11 -47 -3 -114 -7 -150 -9 -36 -2 -126 -7 -200
-12 -74 -4 -286 -7 -470 -7 -275 0 -348 3 -408 17 -223 50 -346 187 -380 422
-10 69 -9 368 2 490 5 55 10 118 12 140 5 67 13 287 19 525 3 124 8 290 10
370 3 80 7 233 10 340 3 107 7 256 10 330 2 74 7 209 10 300 2 91 7 226 10
300 3 74 7 194 10 265 15 400 33 793 41 905 2 30 6 96 10 145 3 50 7 101 9
115 2 14 4 35 4 48 1 31 25 28 60 -8 26 -28 72 -143 85 -216 3 -16 8 -40 11
-54 9 -41 25 -123 31 -155 9 -55 24 -92 102 -247 42 -84 82 -166 89 -183 7
-16 25 -61 42 -100 16 -38 68 -178 116 -310 48 -132 107 -291 132 -354 50
-128 77 -212 129 -411 19 -74 42 -160 50 -190 8 -30 17 -62 19 -70 23 -97 119
-385 168 -505 217 -535 480 -659 774 -366 126 126 144 254 77 556 -18 84 -9
366 20 570 3 22 8 65 11 95 6 60 14 120 20 160 2 14 7 50 10 80 3 30 8 62 10
70 2 8 7 49 10 90 3 41 8 82 10 90 3 8 7 44 10 80 5 60 7 88 20 210 2 25 7 74
10 110 4 36 8 76 10 90 2 14 7 59 10 100 4 41 8 82 10 90 1 8 6 47 9 85 4 39
9 88 12 110 3 22 7 58 10 80 2 22 7 57 9 78 14 107 53 387 60 432 7 40 36 196
40 215 27 136 66 249 95 275 18 16 20 16 44 -10 46 -50 100 -295 131 -595 1
-14 5 -47 9 -75 9 -78 20 -190 31 -335 4 -41 8 -95 10 -120 2 -25 6 -90 10
-145 3 -55 8 -127 11 -160 2 -33 6 -105 9 -160 3 -55 7 -140 10 -190 9 -154
23 -552 30 -855 7 -274 10 -317 31 -475 13 -99 38 -226 65 -330 17 -64 20 -96
15 -159 -4 -43 -8 -81 -10 -85 -2 -3 -7 -27 -10 -53 -4 -26 -9 -53 -11 -60 -2
-7 -6 -24 -9 -38 -2 -14 -9 -46 -15 -73 -6 -26 -14 -64 -17 -85 -3 -20 -9 -53
-13 -72 -4 -19 -8 -75 -10 -125 -6 -226 72 -339 256 -371 15 -3 36 -7 45 -10
22 -7 145 -6 183 1 64 12 90 18 105 25 8 4 26 12 40 18 79 32 154 114 191 211
20 52 22 76 24 356 1 165 5 311 8 325 3 14 8 43 11 65 11 86 28 187 61 358 19
98 37 190 40 205 5 26 9 51 20 102 5 27 11 61 20 125 4 22 10 58 15 80 5 22
12 56 15 75 5 27 55 264 90 420 34 157 138 525 203 725 62 188 106 302 226
586 52 124 114 275 136 335 23 60 45 118 50 129 15 35 59 178 80 261 23 89 27
108 36 168 3 22 10 48 15 58 6 10 8 22 6 26 -8 13 12 52 27 52 9 0 22 -10 30
-22z"/>
</g>
</svg>
